<?xml version="1.0" standalone="no"?>
<!DOCTYPE svg PUBLIC "-//W3C//DTD SVG 20010904//EN"
 "http://www.w3.org/TR/2001/REC-SVG-20010904/DTD/svg10.dtd">
<svg version="1.0" xmlns="http://www.w3.org/2000/svg"
 width="161.000000pt" height="161.000000pt" viewBox="0 0 161.000000 161.000000"
 preserveAspectRatio="xMidYMid meet">
<metadata>
Created by potrace 1.11, written by Peter Selinger 2001-2013
</metadata>
<g transform="translate(0.000000,161.000000) scale(0.100000,-0.100000)"
fill="#000000" stroke="none">
<path d="M400 1179 c-25 -4 -70 -15 -100 -24 -30 -8 -59 -17 -65 -18 -10 -3
-99 -36 -170 -65 -55 -22 -64 -30 -58 -52 7 -28 32 -25 115 14 88 40 174 69
186 62 9 -5 9 -43 -2 -188 -9 -107 -14 -139 -28 -155 -8 -10 -8 -21 -1 -36 11
-25 7 -115 -8 -164 -14 -45 -8 -113 10 -122 42 -20 61 1 62 67 3 154 12 178
64 158 240 -93 359 -129 430 -128 58 0 115 27 115 53 0 19 -4 21 -37 15 -56
-9 -56 -9 -88 -2 -16 4 -43 9 -58 12 -57 11 -312 106 -343 128 -16 12 -13 16
29 40 204 115 280 179 312 263 22 58 7 90 -60 123 -43 22 -64 25 -155 26 -58
1 -125 -2 -150 -7z m263 -62 c20 -9 40 -23 43 -32 15 -38 -36 -99 -156 -186
-42 -30 -154 -89 -171 -89 -8 0 -9 28 -4 103 4 56 9 109 10 117 2 8 4 31 4 51
1 27 7 38 24 46 34 16 205 9 250 -10z"/>
<path d="M970 1028 c-40 -19 -68 -40 -134 -98 -51 -45 -106 -138 -106 -180 0
-39 39 -105 70 -119 54 -23 160 1 243 57 33 23 72 77 80 112 3 14 8 36 12 50
27 102 10 169 -48 189 -44 16 -67 14 -117 -11z m88 -79 c29 -12 32 -17 28 -49
-12 -92 -49 -150 -120 -185 -58 -29 -102 -32 -135 -9 -19 14 -22 22 -16 52 7
38 47 103 86 139 28 25 112 74 119 70 3 -2 20 -10 38 -18z"/>
<path d="M1527 1042 c-11 -2 -16 -10 -13 -20 2 -9 7 -37 10 -62 3 -25 9 -67
13 -95 10 -74 7 -189 -6 -213 -15 -29 -36 -20 -89 37 -57 61 -89 125 -117 235
-20 79 -26 91 -46 94 -33 5 -49 -23 -49 -87 0 -31 -11 -100 -25 -154 -30 -116
-36 -181 -22 -222 13 -39 24 -45 58 -33 39 13 44 25 23 49 -21 24 -21 90 2
167 l15 54 37 -60 c52 -84 94 -128 147 -154 43 -21 47 -21 73 -6 49 30 62 57
64 133 1 39 -1 93 -5 120 -4 28 -10 67 -13 88 -3 25 1 47 13 67 17 29 16 30
-2 44 -24 18 -44 23 -68 18z"/>
</g>
</svg>
